<?xml version="1.0" encoding="utf-8"?>
<!-- Generator: Adobe Illustrator 21.0.2, SVG Export Plug-In . SVG Version: 6.00 Build 0)  -->
<svg version="1.1" xmlns="http://www.w3.org/2000/svg" xmlns:xlink="http://www.w3.org/1999/xlink" x="0px" y="0px"
	 viewBox="0 0 1920 500" style="enable-background:new 0 0 1920 500;" xml:space="preserve">
<style type="text/css">
	.st0{fill:#9B4302;stroke:#9B4302;}
	.st1{fill:#FFEFB3;stroke:#FFEFB3;}
	.st2{fill:#884000;stroke:#884000;}
	.st3{fill:#F5E5AC;stroke:#F5E5AC;}
	.st4{fill:#F5D59F;stroke:#F5D59F;}
	.st5{fill:#F5CA78;stroke:#F5CA78;}
</style>
<g id="Layer_2">
	<polygon class="st0" points="-0.5,500.5 226.5,387.5 255.8,451.1 278.5,500.5 	"/>
	<polygon class="st0" points="394.5,371.5 212.5,419.5 242.5,500.5 442.5,500.5 	"/>
	<polygon class="st0" points="381.5,436.5 593.5,366.5 691.5,500.5 397.7,500 	"/>
	<polygon class="st0" points="573.5,389.5 855.5,417.5 899.5,500.5 573.5,500.5 	"/>
	<polygon class="st0" points="773.5,448.5 1033.5,389.5 1135.5,500.5 847,500 	"/>
	<polygon class="st0" points="1046.5,454.5 1236.5,398.5 1396.5,500.5 1093.3,500 	"/>
	<polygon class="st0" points="1288.5,464.5 1295.3,462.6 1523.5,398.5 1609.5,500.5 1329.1,500.5 1288.5,471.5 	"/>
	<polygon class="st0" points="1532.1,464.9 1778.1,419.8 1919.5,452.5 1919.5,500.5 1532.1,500.5 	"/>
	<polygon class="st0" points="-0.5,408.5 187.5,433.5 154.4,500 -0.5,500.5 	"/>
</g>
<g id="Layer_1">
	<g>
		<g id="svg_8">
			<path id="svg_9" class="st1" d="M1256,231.9c0,0,106.2-28.4,278.8-27.6c172.6,0.8,281.4,35.9,281.4,35.9l25.9,218.6
				c0,0-139.2,16-312.5,16s-315.1-16-315.1-16L1256,231.9L1256,231.9z"/>
		</g>
		<g id="svg_10">
			<path id="svg_11" class="st2" d="M1558.2,406.3c0,0-2.5-18.7-27.1-19.1s-25.6,19.1-25.6,19.1V476l52.8-1.2v-68.5H1558.2z"/>
		</g>
		<g id="svg_12">
			<path id="svg_13" class="st2" d="M1433.9,309c0,0,2.1-16.1,22.4-17.1c20.3-0.9,21.1,15.8,21.1,15.8l-0.3,60.1l-43.5,0.2
				L1433.9,309z"/>
		</g>
		<g id="svg_18">
			<path id="svg_19" class="st3" d="M1237.9,172.6c12-35.4,35.4-70.8,73-80.2c16,3.6,13,9.4,13,9.4l16.8,50.6l20,6.3l6,23.6
				l26.4,64.2l36.4,0.1l1.3,24.8l29.5,90.6l35.6,1.2v27.2l22,86.5c0,0-80.7-2.4-164.6-7.3c-83.9-4.9-139.5-10.4-139.5-10.4
				S1234.8,181.4,1237.9,172.6z"/>
		</g>
		<g id="svg_20">
			<path id="svg_21" class="st4" d="M1311.5,103.6l-15.4,11.1l-1.1,54l16.5-6.4V103.6z"/>
		</g>
		<g id="svg_22">
			<path id="svg_23" class="st4" d="M1290.3,118.4l-14.1,9.6l-1,46.6l15.1-5.5C1290.3,169.1,1290.3,118.4,1290.3,118.4z"/>
		</g>
		<g id="svg_24">
			<path id="svg_25" class="st4" d="M1269.5,133.3l-12.8,14.5l-0.9,35.9l13.7-4.8V133.3z"/>
		</g>
		<g id="svg_26">
			<path id="svg_27" class="st4" d="M1251.4,155.9l-8.6,14.5l-1,20.2l10.3-3.3L1251.4,155.9z"/>
		</g>
		<g id="svg_28">
			<path id="svg_29" class="st4" d="M1494.9,362.4c0,0-2.6-3.8-7.2-3.8c-18.5,0.1-70.9,0.5-133,4.4c-77.7,4.9-136.5,11.8-136.5,11.8
				l-1.2,8.2c0,0,61-7.1,138.6-10.1c58.2-2.3,110.1-3.9,131.3-3.7c7.1,0.1,8.7,4,8.7,4L1494.9,362.4z"/>
		</g>
		<g id="svg_30">
			<path id="svg_31" class="st5" d="M1495.2,370.3c0,0-4.6-3.4-7.5-3.4c-16,0-65.6,1.3-140.5,5.7c-74.9,4.3-130.7,10-130.7,10
				l-1.2,7.6l133-9.3c0,0,119.3-4.7,139.4-4.7c5,0,7.7,4.2,7.7,4.2L1495.2,370.3L1495.2,370.3z"/>
		</g>
		<g id="svg_32">
			<path id="svg_33" class="st5" d="M1430.5,262.6c0,0-9-3.8-15.1-3.1c-14.2,1.6-33.5,4.6-75,8.8c-59.3,5.9-115.2,19.8-115.2,19.8
				l-1.2,7.4c0,0,47.1-13,106.4-18.9c41.5-4.2,66.3-7.1,84-8.7c7.6-0.7,16.8,4.9,16.8,4.9L1430.5,262.6z"/>
		</g>
		<g id="svg_34">
			<path id="svg_35" class="st4" d="M1321.2,88.1c0,0-7.1-3.4-10-2.1c-11.8,5.2-31.7,18.3-46.2,32.6c-18.2,18-20.5,22.4-20.5,22.4
				l-3.9,13.1c0,0,15.8-23.3,34.4-37.6c13.9-10.7,38.4-24.5,38.4-24.5l9.7,2L1321.2,88.1z"/>
		</g>
		<g id="svg_36">
			<path id="svg_37" class="st5" d="M1323.1,93.6c0,0-8.3-3.7-11.1-2c-10.9,6.7-35.2,21.8-49.9,34.9c-14.7,13.1-20.6,25.8-20.6,25.8
				l-2.2,16.4c0,0,7.6-21.6,25.9-37.7c12.8-11.3,37.2-28,49.6-35.6c5.3,0.9,9.6,4.5,9.6,4.5L1323.1,93.6z"/>
		</g>
		<g id="svg_38">
			<path id="svg_39" class="st2" d="M1423.5,405.7c0,0,2.1-18.7,23.2-19.1c21-0.4,21.9,19.1,21.9,19.1v69.7l-45.1-1.2V405.7z"/>
		</g>
		<g id="svg_40">
			<path id="svg_41" class="st2" d="M1362.9,407.2c0,0,2-18.2,21.2-18.6c19.2-0.4,20,18.6,20,18.6v66.3l-41.2-1.9V407.2z"/>
		</g>
		<g id="svg_42">
			<path id="svg_43" class="st2" d="M1309.2,408.2c0,0,2-17.4,18.2-17.5c16.2-0.1,16.6,18.1,16.6,18.1l-1.1,61.5l-34.7-2.5
				L1309.2,408.2z"/>
		</g>
		<g id="svg_44">
			<path id="svg_45" class="st2" d="M1273.3,410c0,0,1.5-15.3,11.7-15.4c10.2,0,10.2,16,10.2,16l-1.5,56.2l-21.9-1.3L1273.3,410z"/>
		</g>
		<g id="svg_46">
			<path id="svg_47" class="st2" d="M1246.3,410.3c0,0,1.3-14.2,9.1-14.3c7.8,0,7.6,14.8,7.6,14.8l-1.8,52.3l-17.3-1.2L1246.3,410.3
				z"/>
		</g>
		<g id="svg_48">
			<path id="svg_49" class="st2" d="M1226.3,412.1c0,0,1-13.3,6.1-13.5c5.1-0.1,4.9,13.8,4.9,13.8l-1.6,48.5l-11.6-0.4L1226.3,412.1
				z"/>
		</g>
		<g id="svg_50">
			<path id="svg_51" class="st2" d="M1404.7,293.5c0,0-1.8-16.2-20.5-16.6c-18.7-0.4-19.6,16.5-19.6,16.5l-0.5,59l40.1-1.7
				L1404.7,293.5z"/>
		</g>
		<g id="svg_52">
			<path id="svg_53" class="st2" d="M1345.9,301.9c0,0-1.3-15.5-17-16.1c-15.8-0.6-16.8,15.5-16.8,15.5l-1.2,54.7l33.9-1.1
				L1345.9,301.9z"/>
		</g>
		<g id="svg_54">
			<path id="svg_55" class="st2" d="M1299,307.4c0,0-0.9-13.7-10.8-14.1c-9.9-0.4-10.5,13.9-10.5,13.9l-0.6,50l21.3-0.4L1299,307.4z
				"/>
		</g>
		<g id="svg_56">
			<path id="svg_57" class="st2" d="M1265.5,313c0,0-0.7-12.7-8.3-13c-7.6-0.3-8,12.9-8,12.9l-0.2,46.6l16.9-0.5L1265.5,313z"/>
		</g>
		<g id="svg_58">
			<path id="svg_59" class="st2" d="M1240.2,318.1c0,0-0.4-11.9-5.4-12.2c-5-0.3-5.3,12.1-5.3,12.1l-0.3,43.2l11.3,0.1L1240.2,318.1
				z"/>
		</g>
		<g id="svg_60">
			<path id="svg_61" class="st4" d="M1494.9,346.3c0,0-2.6-3.8-7.2-3.8c-18.5,0.1-70.9,0.5-133,4.4c-77.7,4.9-136.5,11.7-136.5,11.7
				l-1.2,8.2c0,0,61-9.1,138.6-12.1c58.2-2.3,110.1-2,131.3-1.8c7.1,0.1,8.7,4,8.7,4L1494.9,346.3z"/>
		</g>
		<g id="svg_62">
			<path id="svg_63" class="st5" d="M1495.2,353.1c0,0-4.6-3.4-7.5-3.4c-16,0-65.6,1.3-140.5,5.7c-74.9,4.3-130.7,10-130.7,10
				l-1.1,7.6l133-9.3c0,0,119.3-4.7,139.4-4.7c5,0,7.7,4.2,7.7,4.2L1495.2,353.1L1495.2,353.1z"/>
		</g>
		<g id="svg_64">
			<path id="svg_65" class="st2" d="M1348.4,199.2c0,0-1.3-13.6-17-12c-15.7,1.6-16.8,16.1-16.8,16.1l-1.2,48.9l33.9-5.6
				L1348.4,199.2z"/>
		</g>
		<g id="svg_66">
			<path id="svg_67" class="st2" d="M1301.5,210.5c0,0-0.9-12.1-10.8-11c-9.9,1-10.5,13.8-10.5,13.8l-0.6,44.6l21.3-3.3
				L1301.5,210.5z"/>
		</g>
		<g id="svg_68">
			<path id="svg_69" class="st2" d="M1267.9,220c0,0-0.7-11.2-8.3-10.4s-8,12.6-8,12.6l-0.2,41.5l16.9-2.8L1267.9,220z"/>
		</g>
		<g id="svg_70">
			<path id="svg_71" class="st2" d="M1245,228.4c0,0-0.1-10.6-5.1-10.5s-5.6,11.1-5.6,11.1l-1.4,38.5l11.3-0.7L1245,228.4z"/>
		</g>
		<g id="svg_72">
			<path id="svg_73" class="st2" d="M1627.1,407c0,0-2.1-18.1-22.4-18.5c-20.4-0.4-21.2,18.5-21.2,18.5v67.7l43.6-1.2V407z"/>
		</g>
		<g id="svg_74">
			<path id="svg_75" class="st2" d="M1689.6,408.5c0,0-1.9-17.7-20.5-18.1s-19.4,18.1-19.4,18.1v64.3l39.9-1.8V408.5z"/>
		</g>
		<g id="svg_76">
			<path id="svg_77" class="st2" d="M1741.6,409.5c0,0-1.9-16.9-17.6-17s-16.1,17.5-16.1,17.5l1,59.7l33.6-2.4L1741.6,409.5z"/>
		</g>
		<g id="svg_78">
			<path id="svg_79" class="st2" d="M1777.7,411.3c0,0-1.4-14.9-11.3-14.9s-9.9,15.5-9.9,15.5l1.5,54.6l21.2-1.2L1777.7,411.3z"/>
		</g>
		<g id="svg_80">
			<path id="svg_81" class="st2" d="M1803.8,413c0,0-1.2-13.8-8.8-13.9c-7.6,0-7.4,14.4-7.4,14.4l1.7,50.8l16.8-1.2L1803.8,413z"/>
		</g>
		<g id="svg_82">
			<path id="svg_83" class="st2" d="M1823.2,414.7c0,0-0.9-12.9-5.9-13.1c-5-0.1-4.7,13.4-4.7,13.4l1.5,47.1l11.2-0.4L1823.2,414.7z
				"/>
		</g>
		<g id="svg_84">
			<path id="svg_85" class="st2" d="M1556.7,307.6c0,0-2.6-16.6-27.1-17.7s-25.5,16.2-25.5,16.2l0.3,61.9l52.6,0.5L1556.7,307.6z"/>
		</g>
		<g id="svg_86">
			<path id="svg_87" class="st2" d="M1625.4,310.3c0,0-2.1-16.1-22.4-17.1c-20.3-0.9-21.1,15.8-21.1,15.8l0.3,60.1l43.5,0.2
				L1625.4,310.3z"/>
		</g>
		<g id="svg_88">
			<path id="svg_89" class="st2" d="M1684.4,313.7c0,0-2.5-15.7-21.1-16.6c-18.6-0.9-18.7,15.4-18.7,15.4l2.3,56.9l39.7-0.5
				L1684.4,313.7z"/>
		</g>
		<g id="svg_90">
			<path id="svg_91" class="st2" d="M1736.3,317.1c0,0-2.5-14.7-18.2-15.2s-15.4,14.7-15.4,14.7l3.2,51.8l33.5,0.1L1736.3,317.1z"/>
		</g>
		<g id="svg_92">
			<path id="svg_93" class="st2" d="M1772.4,319.3c0,0-1.9-13.3-11.8-13.7c-9.9-0.3-9.3,13.6-9.3,13.6l3.4,48.8l21.1-0.5
				L1772.4,319.3z"/>
		</g>
		<g id="svg_94">
			<path id="svg_95" class="st2" d="M1798.4,323c0,0-1.7-12.3-9.3-12.6c-7.5-0.3-6.8,12.6-6.8,12.6l3.5,45.3l16.7-0.6L1798.4,323z"
				/>
		</g>
		<g id="svg_96">
			<path id="svg_97" class="st2" d="M1817.9,327.5c0,0-1.4-11.3-6.3-11.5c-4.9-0.2-4.2,11.5-4.2,11.5l3.2,40.9h11.2L1817.9,327.5z"
				/>
		</g>
		<g id="svg_98">
			<path id="svg_99" class="st5" d="M1439.1,233.1c0,0,2-13.2,20.9-13.9c18.9-0.8,19.6,12.9,19.6,12.9l-0.2,48.9l-40.6,0.2
				L1439.1,233.1z"/>
		</g>
		<g id="svg_100">
			<path id="svg_101" class="st5" d="M1554,231.9c0,0-2.3-13.6-24.1-14.4c-21.8-0.9-22.6,13.2-22.6,13.2l0.2,50.4l46.7,0.4
				L1554,231.9z"/>
		</g>
		<g id="svg_102">
			<path id="svg_103" class="st5" d="M1623,234.1c0,0-2-13.2-20.9-13.9c-18.9-0.8-19.6,12.9-19.6,12.9l0.2,48.9l40.6,0.2L1623,234.1
				z"/>
		</g>
		<g id="svg_104">
			<path id="svg_105" class="st5" d="M1679.3,239.2c0,0-2.4-12.8-19.7-13.5c-17.3-0.7-17.4,12.6-17.4,12.6l2.1,46.5l37.1,2.2
				L1679.3,239.2z"/>
		</g>
		<g id="svg_106">
			<path id="svg_107" class="st5" d="M1730.4,246.3c0,0-2.3-12.3-17-13.2c-14.6-0.9-14.4,11.9-14.4,11.9l2.9,42l31.2,2.3
				L1730.4,246.3z"/>
		</g>
		<g id="svg_108">
			<path id="svg_109" class="st5" d="M1765.3,252.8c0,0-1.8-10.8-11-11.4c-9.2-0.5-8.7,10.7-8.7,10.7l3.2,38.9l19.6,0.8
				L1765.3,252.8z"/>
		</g>
		<g id="svg_110">
			<path id="svg_111" class="st5" d="M1790.6,257.3c0,0-1.6-10.1-8.7-10.5c-7-0.4-6.4,10.1-6.4,10.1l3.6,35.6l15.2,1.3L1790.6,257.3
				z"/>
		</g>
		<g id="svg_112">
			<path id="svg_113" class="st5" d="M1810.3,261.9c0,0-1.3-9.4-5.9-9.8c-4.6-0.3-4,9.5-4,9.5l3,33.8l10.4,0.6L1810.3,261.9z"/>
		</g>
		<g id="svg_114">
			<path id="svg_115" class="st2" d="M1348.4,199.2c0,0-1.3-13.6-17-12c-15.7,1.6-16.8,16.1-16.8,16.1l-0.9,15.2l34.6-4.4
				L1348.4,199.2z"/>
		</g>
		<g id="svg_116">
			<path id="svg_117" class="st2" d="M1301.5,210.5c0,0-0.9-12.1-10.8-11c-9.9,1-10.5,13.8-10.5,13.8l0.2,12.5l20.9-4.4
				L1301.5,210.5z"/>
		</g>
		<g id="svg_118">
			<path id="svg_119" class="st2" d="M1267.9,220c0,0-0.7-11.2-8.3-10.4s-8,12.6-8,12.6l0.2,10.6l16.5-3.6L1267.9,220z"/>
		</g>
		<g id="svg_120">
			<path id="svg_121" class="st2" d="M1245,228.4c0,0-0.1-10.6-5.1-10.5s-5.6,11.1-5.6,11.1l-0.3,8l10.9-2.3L1245,228.4z"/>
		</g>
		<g id="svg_122">
			<path id="svg_123" class="st2" d="M1281,138.1l3.7-1.5v13l-3.7,1.1V138.1z"/>
		</g>
		<g id="svg_124">
			<path id="svg_125" class="st2" d="M1246.4,167l1.6-1v8.8l-1.6,0.8V167z"/>
		</g>
		<g id="svg_126">
			<path id="svg_127" class="st5" d="M1365.7,161.6c0,0-11.2-2.5-17.7-3.3c-12,2.4-14.1,3.9-47.9,13.9
				c-33.8,9.9-67.1,23.6-67.1,23.6l-0.1,6.1c0,0,32.8-13.6,66.8-23.2c34-9.6,41.5-9.3,55.3-10.9c7.4-0.9,11.2,0.3,11.2,0.3
				L1365.7,161.6z"/>
		</g>
		<g id="svg_128">
			<path id="svg_129" class="st4" d="M1366.3,167.2c0,0-12.8-3.9-15.4-3.3c-9.6,1.9-14.2,3.1-48.4,12.8s-69.2,25.2-69.2,25.2
				l0.4,7.4c0,0,32.9-16,67.1-25.7c34.3-9.7,45.3-9.2,57-11.4c6.3-1.2,8.9,3.3,8.9,3.3L1366.3,167.2z"/>
		</g>
		<g id="svg_130">
			<path id="svg_131" class="st5" d="M1366.7,174.7c0,0-11.2-6.2-17.7-4.9c-12,2.4-11.9,3-45.7,12.9c-33.8,9.9-69.9,26.1-69.9,26.1
				l0.2,4.6c0,0,32.9-13.8,66.9-23.4c34-9.6,35.8-10.3,49.6-11.9c7.4-0.9,17.3,4.7,17.3,4.7L1366.7,174.7L1366.7,174.7z"/>
		</g>
		<g id="svg_134">
			<path id="svg_135" class="st4" d="M1429.6,243.3c0,0-16.7-4.8-24.9-3.9c-15.3,1.7-28.9,3.9-67.4,7.7
				c-59.3,6-115.2,20.6-115.2,20.6l1.4,8.1c0,0,44.4-14.4,103.7-20.3c35.6-3.6,58.8-6.7,78.3-8.5c12.9-1.2,24.8,4.3,24.8,4.3
				L1429.6,243.3z"/>
		</g>
		<g id="svg_136">
			<path id="svg_137" class="st5" d="M1430.1,249.3c0,0-11.9-4.2-18-3.5c-14.2,1.6-31.7,4.2-73.2,8.3
				c-59.2,5.9-115.2,19.8-115.2,19.8l-1.2,7.4c0,0,47.1-13,106.4-18.9c41.5-4.2,66.9-7.1,84.7-8.7c7.6-0.7,16.8,4.9,16.8,4.9
				L1430.1,249.3z"/>
		</g>
		<g id="svg_138">
			<path id="svg_139" class="st4" d="M1430,257.4c0,0-13-4.8-21.2-3.9c-15.3,1.7-31.5,4.1-70,7.9c-59.3,5.9-115.2,20.6-115.2,20.6
				l1.4,8c0,0,44.4-14.4,103.7-20.3c35.6-3.6,58.8-6.7,78.3-8.5c12.9-1.2,23.4,2.5,23.4,2.5L1430,257.4z"/>
		</g>
		<g id="svg_140">
			<path id="svg_141" class="st4" d="M1365.1,157.2c0,0-16.3-5.8-19-5.2c-9.6,1.9-9.5,2.8-43.7,12.5c-34.2,9.7-69.2,26.1-69.2,26.1
				l0.2,4.9c0,0,3-0.8,5.4-1.7c9.4-3.6,33.8-13.1,61.2-20.9c34.3-9.7,45.7-8.5,57.4-10.7c6.3-1.2,8.5-0.3,8.5-0.3L1365.1,157.2z"/>
		</g>
	</g>
</g>
</svg>
